<mxfile host="app.diagrams.net" modified="2023-12-27T22:39:10.866Z" agent="Mozilla/5.0 (Windows NT 10.0; Win64; x64) AppleWebKit/537.36 (KHTML, like Gecko) Chrome/119.0.0.0 Safari/537.36 OPR/105.0.0.0" etag="UW-C-C41qsYXQ7UkHgRB" version="22.1.15" type="device">
  <diagram name="Страница — 1" id="0AiSEKnH4W3EsqoIHgC0">
    <mxGraphModel dx="1267" dy="612" grid="1" gridSize="10" guides="1" tooltips="1" connect="1" arrows="1" fold="1" page="1" pageScale="1" pageWidth="827" pageHeight="1169" math="0" shadow="0">
      <root>
        <mxCell id="0" />
        <mxCell id="1" parent="0" />
        <mxCell id="lnJxLbBwpEq78I7ZmRtl-56" value="" style="rounded=0;whiteSpace=wrap;html=1;fontFamily=Helvetica;fontSize=11;fontColor=default;" vertex="1" parent="1">
          <mxGeometry x="30" width="830" height="260" as="geometry" />
        </mxCell>
        <mxCell id="lnJxLbBwpEq78I7ZmRtl-2" style="rounded=0;orthogonalLoop=1;jettySize=auto;html=1;endArrow=none;endFill=0;exitX=-0.007;exitY=0.633;exitDx=0;exitDy=0;exitPerimeter=0;" edge="1" parent="1" source="RMy2AMd9AWKWixyhCgNO-1">
          <mxGeometry relative="1" as="geometry">
            <mxPoint x="235" y="40" as="sourcePoint" />
            <mxPoint x="170" y="50" as="targetPoint" />
            <Array as="points">
              <mxPoint x="240" y="40" />
            </Array>
          </mxGeometry>
        </mxCell>
        <mxCell id="RMy2AMd9AWKWixyhCgNO-1" value="&lt;font style=&quot;font-size: 18px;&quot; face=&quot;Times New Roman&quot;&gt;Соц. исследования&lt;/font&gt;" style="text;html=1;align=center;verticalAlign=middle;resizable=0;points=[];autosize=1;strokeColor=none;fillColor=none;" parent="1" vertex="1">
          <mxGeometry x="310" y="5" width="170" height="40" as="geometry" />
        </mxCell>
        <mxCell id="lnJxLbBwpEq78I7ZmRtl-1" value="&lt;font style=&quot;font-size: 16px;&quot; face=&quot;Times New Roman&quot;&gt;по месту проведения&lt;/font&gt;" style="text;html=1;align=center;verticalAlign=middle;resizable=0;points=[];autosize=1;strokeColor=none;fillColor=none;" vertex="1" parent="1">
          <mxGeometry x="80" y="45" width="170" height="30" as="geometry" />
        </mxCell>
        <mxCell id="lnJxLbBwpEq78I7ZmRtl-3" value="&lt;font style=&quot;font-size: 12px;&quot; face=&quot;Times New Roman&quot;&gt;полевые&lt;/font&gt;" style="text;html=1;align=center;verticalAlign=middle;resizable=0;points=[];autosize=1;strokeColor=none;fillColor=none;strokeWidth=0;" vertex="1" parent="1">
          <mxGeometry x="20" y="85" width="70" height="30" as="geometry" />
        </mxCell>
        <mxCell id="lnJxLbBwpEq78I7ZmRtl-6" style="rounded=0;orthogonalLoop=1;jettySize=auto;html=1;dashed=1;endArrow=openThin;endFill=0;" edge="1" parent="1" source="lnJxLbBwpEq78I7ZmRtl-1">
          <mxGeometry relative="1" as="geometry">
            <mxPoint x="60" y="90" as="targetPoint" />
          </mxGeometry>
        </mxCell>
        <mxCell id="lnJxLbBwpEq78I7ZmRtl-7" value="&lt;font style=&quot;font-size: 12px;&quot; face=&quot;Times New Roman&quot;&gt;лабораторные&lt;/font&gt;" style="text;html=1;align=center;verticalAlign=middle;resizable=0;points=[];autosize=1;strokeColor=none;fillColor=none;strokeWidth=0;" vertex="1" parent="1">
          <mxGeometry x="90" y="85" width="90" height="30" as="geometry" />
        </mxCell>
        <mxCell id="lnJxLbBwpEq78I7ZmRtl-12" style="edgeStyle=none;shape=connector;rounded=0;orthogonalLoop=1;jettySize=auto;html=1;entryX=0.545;entryY=0.167;entryDx=0;entryDy=0;entryPerimeter=0;dashed=1;labelBackgroundColor=default;strokeColor=default;align=center;verticalAlign=middle;fontFamily=Helvetica;fontSize=11;fontColor=default;endArrow=openThin;endFill=0;" edge="1" parent="1" source="lnJxLbBwpEq78I7ZmRtl-1" target="lnJxLbBwpEq78I7ZmRtl-7">
          <mxGeometry relative="1" as="geometry" />
        </mxCell>
        <mxCell id="lnJxLbBwpEq78I7ZmRtl-24" style="edgeStyle=none;shape=connector;rounded=0;orthogonalLoop=1;jettySize=auto;html=1;labelBackgroundColor=default;strokeColor=default;align=center;verticalAlign=middle;fontFamily=Helvetica;fontSize=11;fontColor=default;endArrow=openThin;endFill=0;dashed=1;" edge="1" parent="1" source="lnJxLbBwpEq78I7ZmRtl-13" target="lnJxLbBwpEq78I7ZmRtl-23">
          <mxGeometry relative="1" as="geometry" />
        </mxCell>
        <mxCell id="lnJxLbBwpEq78I7ZmRtl-13" value="&lt;font style=&quot;font-size: 16px;&quot; face=&quot;Times New Roman&quot;&gt;по цели&lt;/font&gt;" style="text;html=1;align=center;verticalAlign=middle;resizable=0;points=[];autosize=1;strokeColor=none;fillColor=none;" vertex="1" parent="1">
          <mxGeometry x="250" y="45" width="80" height="30" as="geometry" />
        </mxCell>
        <mxCell id="lnJxLbBwpEq78I7ZmRtl-18" style="edgeStyle=none;shape=connector;rounded=0;orthogonalLoop=1;jettySize=auto;html=1;labelBackgroundColor=default;strokeColor=default;align=center;verticalAlign=middle;fontFamily=Helvetica;fontSize=11;fontColor=default;endArrow=none;endFill=0;exitX=0.235;exitY=0.875;exitDx=0;exitDy=0;exitPerimeter=0;" edge="1" parent="1" source="RMy2AMd9AWKWixyhCgNO-1">
          <mxGeometry relative="1" as="geometry">
            <mxPoint x="300" y="50" as="targetPoint" />
          </mxGeometry>
        </mxCell>
        <mxCell id="lnJxLbBwpEq78I7ZmRtl-19" value="&lt;font style=&quot;font-size: 12px;&quot; face=&quot;Times New Roman&quot;&gt;разведывательные&lt;/font&gt;" style="text;html=1;align=center;verticalAlign=middle;resizable=0;points=[];autosize=1;strokeColor=none;fillColor=none;strokeWidth=0;" vertex="1" parent="1">
          <mxGeometry x="185" y="85" width="120" height="30" as="geometry" />
        </mxCell>
        <mxCell id="lnJxLbBwpEq78I7ZmRtl-20" style="edgeStyle=none;shape=connector;rounded=0;orthogonalLoop=1;jettySize=auto;html=1;entryX=0.462;entryY=0.167;entryDx=0;entryDy=0;entryPerimeter=0;labelBackgroundColor=default;strokeColor=default;align=center;verticalAlign=middle;fontFamily=Helvetica;fontSize=11;fontColor=default;endArrow=openThin;endFill=0;dashed=1;" edge="1" parent="1" source="lnJxLbBwpEq78I7ZmRtl-13" target="lnJxLbBwpEq78I7ZmRtl-19">
          <mxGeometry relative="1" as="geometry" />
        </mxCell>
        <mxCell id="lnJxLbBwpEq78I7ZmRtl-21" value="&lt;font style=&quot;font-size: 12px;&quot; face=&quot;Times New Roman&quot;&gt;аналитические&lt;/font&gt;" style="text;html=1;align=center;verticalAlign=middle;resizable=0;points=[];autosize=1;strokeColor=none;fillColor=none;strokeWidth=0;" vertex="1" parent="1">
          <mxGeometry x="325" y="85" width="100" height="30" as="geometry" />
        </mxCell>
        <mxCell id="lnJxLbBwpEq78I7ZmRtl-22" style="edgeStyle=none;shape=connector;rounded=0;orthogonalLoop=1;jettySize=auto;html=1;entryX=0.455;entryY=0.167;entryDx=0;entryDy=0;entryPerimeter=0;labelBackgroundColor=default;strokeColor=default;align=center;verticalAlign=middle;fontFamily=Helvetica;fontSize=11;fontColor=default;endArrow=openThin;endFill=0;dashed=1;" edge="1" parent="1" source="lnJxLbBwpEq78I7ZmRtl-13" target="lnJxLbBwpEq78I7ZmRtl-21">
          <mxGeometry relative="1" as="geometry" />
        </mxCell>
        <mxCell id="lnJxLbBwpEq78I7ZmRtl-23" value="&lt;font style=&quot;font-size: 12px;&quot; face=&quot;Times New Roman&quot;&gt;описательные&lt;/font&gt;" style="text;html=1;align=center;verticalAlign=middle;resizable=0;points=[];autosize=1;strokeColor=none;fillColor=none;" vertex="1" parent="1">
          <mxGeometry x="280" y="110" width="90" height="30" as="geometry" />
        </mxCell>
        <mxCell id="lnJxLbBwpEq78I7ZmRtl-25" value="&lt;font style=&quot;font-size: 10px;&quot; face=&quot;Times New Roman&quot;&gt;пилотажные&lt;/font&gt;" style="text;html=1;align=center;verticalAlign=middle;resizable=0;points=[];autosize=1;strokeColor=none;fillColor=none;" vertex="1" parent="1">
          <mxGeometry x="160" y="130" width="80" height="30" as="geometry" />
        </mxCell>
        <mxCell id="lnJxLbBwpEq78I7ZmRtl-26" style="edgeStyle=none;shape=connector;rounded=0;orthogonalLoop=1;jettySize=auto;html=1;entryX=0.5;entryY=0.333;entryDx=0;entryDy=0;entryPerimeter=0;labelBackgroundColor=default;strokeColor=default;align=center;verticalAlign=middle;fontFamily=Helvetica;fontSize=11;fontColor=default;endArrow=openThin;endFill=0;dashed=1;" edge="1" parent="1" source="lnJxLbBwpEq78I7ZmRtl-19" target="lnJxLbBwpEq78I7ZmRtl-25">
          <mxGeometry relative="1" as="geometry" />
        </mxCell>
        <mxCell id="lnJxLbBwpEq78I7ZmRtl-27" value="&lt;font style=&quot;font-size: 10px;&quot; face=&quot;Times New Roman&quot;&gt;зондажные&lt;/font&gt;" style="text;html=1;align=center;verticalAlign=middle;resizable=0;points=[];autosize=1;strokeColor=none;fillColor=none;" vertex="1" parent="1">
          <mxGeometry x="220" y="130" width="70" height="30" as="geometry" />
        </mxCell>
        <mxCell id="lnJxLbBwpEq78I7ZmRtl-28" style="edgeStyle=none;shape=connector;rounded=0;orthogonalLoop=1;jettySize=auto;html=1;entryX=0.563;entryY=0.333;entryDx=0;entryDy=0;entryPerimeter=0;labelBackgroundColor=default;strokeColor=default;align=center;verticalAlign=middle;fontFamily=Helvetica;fontSize=11;fontColor=default;endArrow=openThin;endFill=0;dashed=1;" edge="1" parent="1" source="lnJxLbBwpEq78I7ZmRtl-19" target="lnJxLbBwpEq78I7ZmRtl-27">
          <mxGeometry relative="1" as="geometry" />
        </mxCell>
        <mxCell id="lnJxLbBwpEq78I7ZmRtl-29" value="&lt;font style=&quot;font-size: 16px;&quot; face=&quot;Times New Roman&quot;&gt;по месту социолога&lt;/font&gt;" style="text;html=1;align=center;verticalAlign=middle;resizable=0;points=[];autosize=1;strokeColor=none;fillColor=none;" vertex="1" parent="1">
          <mxGeometry x="370" y="45" width="160" height="30" as="geometry" />
        </mxCell>
        <mxCell id="lnJxLbBwpEq78I7ZmRtl-30" style="edgeStyle=none;shape=connector;rounded=0;orthogonalLoop=1;jettySize=auto;html=1;labelBackgroundColor=default;strokeColor=default;align=center;verticalAlign=middle;fontFamily=Helvetica;fontSize=11;fontColor=default;endArrow=none;endFill=0;exitX=0.529;exitY=0.875;exitDx=0;exitDy=0;exitPerimeter=0;entryX=0.488;entryY=0.333;entryDx=0;entryDy=0;entryPerimeter=0;" edge="1" parent="1" source="RMy2AMd9AWKWixyhCgNO-1" target="lnJxLbBwpEq78I7ZmRtl-29">
          <mxGeometry relative="1" as="geometry">
            <mxPoint x="379.99548395512664" y="44.99999999999994" as="sourcePoint" />
          </mxGeometry>
        </mxCell>
        <mxCell id="lnJxLbBwpEq78I7ZmRtl-31" value="&lt;font style=&quot;font-size: 12px;&quot; face=&quot;Times New Roman&quot;&gt;включённые&amp;nbsp;&lt;/font&gt;" style="text;html=1;align=center;verticalAlign=middle;resizable=0;points=[];autosize=1;strokeColor=none;fillColor=none;strokeWidth=0;" vertex="1" parent="1">
          <mxGeometry x="380" y="130" width="90" height="30" as="geometry" />
        </mxCell>
        <mxCell id="lnJxLbBwpEq78I7ZmRtl-32" value="&lt;font style=&quot;font-size: 12px;&quot; face=&quot;Times New Roman&quot;&gt;невключённые&amp;nbsp;&lt;/font&gt;" style="text;html=1;align=center;verticalAlign=middle;resizable=0;points=[];autosize=1;strokeColor=none;fillColor=none;" vertex="1" parent="1">
          <mxGeometry x="460" y="130" width="100" height="30" as="geometry" />
        </mxCell>
        <mxCell id="lnJxLbBwpEq78I7ZmRtl-34" style="edgeStyle=none;shape=connector;rounded=0;orthogonalLoop=1;jettySize=auto;html=1;entryX=0.45;entryY=0.167;entryDx=0;entryDy=0;entryPerimeter=0;labelBackgroundColor=default;strokeColor=default;align=center;verticalAlign=middle;fontFamily=Helvetica;fontSize=11;fontColor=default;endArrow=openThin;endFill=0;dashed=1;" edge="1" parent="1" source="lnJxLbBwpEq78I7ZmRtl-29" target="lnJxLbBwpEq78I7ZmRtl-31">
          <mxGeometry relative="1" as="geometry" />
        </mxCell>
        <mxCell id="lnJxLbBwpEq78I7ZmRtl-35" style="edgeStyle=none;shape=connector;rounded=0;orthogonalLoop=1;jettySize=auto;html=1;entryX=0.5;entryY=0.167;entryDx=0;entryDy=0;entryPerimeter=0;labelBackgroundColor=default;strokeColor=default;align=center;verticalAlign=middle;fontFamily=Helvetica;fontSize=11;fontColor=default;endArrow=openThin;endFill=0;dashed=1;" edge="1" parent="1" source="lnJxLbBwpEq78I7ZmRtl-29" target="lnJxLbBwpEq78I7ZmRtl-32">
          <mxGeometry relative="1" as="geometry" />
        </mxCell>
        <mxCell id="lnJxLbBwpEq78I7ZmRtl-36" value="&lt;font style=&quot;font-size: 16px;&quot; face=&quot;Times New Roman&quot;&gt;изучение в статике или в динамике?&lt;/font&gt;" style="text;html=1;align=center;verticalAlign=middle;resizable=0;points=[];autosize=1;strokeColor=none;fillColor=none;" vertex="1" parent="1">
          <mxGeometry x="531.97" y="40" width="270" height="30" as="geometry" />
        </mxCell>
        <mxCell id="lnJxLbBwpEq78I7ZmRtl-37" style="edgeStyle=none;shape=connector;rounded=0;orthogonalLoop=1;jettySize=auto;html=1;entryX=0.511;entryY=0.167;entryDx=0;entryDy=0;entryPerimeter=0;labelBackgroundColor=default;strokeColor=default;align=center;verticalAlign=middle;fontFamily=Helvetica;fontSize=11;fontColor=default;endArrow=none;endFill=0;" edge="1" parent="1" source="RMy2AMd9AWKWixyhCgNO-1" target="lnJxLbBwpEq78I7ZmRtl-36">
          <mxGeometry relative="1" as="geometry" />
        </mxCell>
        <mxCell id="lnJxLbBwpEq78I7ZmRtl-38" value="&lt;font style=&quot;font-size: 16px;&quot; face=&quot;Times New Roman&quot;&gt;повторные&lt;/font&gt;" style="text;html=1;align=center;verticalAlign=middle;resizable=0;points=[];autosize=1;strokeColor=none;fillColor=none;" vertex="1" parent="1">
          <mxGeometry x="580" y="85" width="100" height="30" as="geometry" />
        </mxCell>
        <mxCell id="lnJxLbBwpEq78I7ZmRtl-39" style="edgeStyle=none;shape=connector;rounded=0;orthogonalLoop=1;jettySize=auto;html=1;entryX=0.5;entryY=0.333;entryDx=0;entryDy=0;entryPerimeter=0;labelBackgroundColor=default;strokeColor=default;align=center;verticalAlign=middle;fontFamily=Helvetica;fontSize=11;fontColor=default;endArrow=openThin;endFill=0;dashed=1;" edge="1" parent="1" source="lnJxLbBwpEq78I7ZmRtl-36" target="lnJxLbBwpEq78I7ZmRtl-38">
          <mxGeometry relative="1" as="geometry" />
        </mxCell>
        <mxCell id="lnJxLbBwpEq78I7ZmRtl-40" value="&lt;font style=&quot;font-size: 16px;&quot; face=&quot;Times New Roman&quot;&gt;разовые&lt;/font&gt;" style="text;html=1;align=center;verticalAlign=middle;resizable=0;points=[];autosize=1;strokeColor=none;fillColor=none;" vertex="1" parent="1">
          <mxGeometry x="770" y="85" width="80" height="30" as="geometry" />
        </mxCell>
        <mxCell id="lnJxLbBwpEq78I7ZmRtl-41" style="edgeStyle=none;shape=connector;rounded=0;orthogonalLoop=1;jettySize=auto;html=1;entryX=0.5;entryY=0.333;entryDx=0;entryDy=0;entryPerimeter=0;labelBackgroundColor=default;strokeColor=default;align=center;verticalAlign=middle;fontFamily=Helvetica;fontSize=11;fontColor=default;endArrow=openThin;endFill=0;dashed=1;" edge="1" parent="1" source="lnJxLbBwpEq78I7ZmRtl-36" target="lnJxLbBwpEq78I7ZmRtl-40">
          <mxGeometry relative="1" as="geometry" />
        </mxCell>
        <mxCell id="lnJxLbBwpEq78I7ZmRtl-42" value="&lt;font style=&quot;font-size: 12px;&quot; face=&quot;Times New Roman&quot;&gt;трендовые&lt;/font&gt;" style="text;html=1;align=center;verticalAlign=middle;resizable=0;points=[];autosize=1;strokeColor=none;fillColor=none;" vertex="1" parent="1">
          <mxGeometry x="480" y="180" width="80" height="30" as="geometry" />
        </mxCell>
        <mxCell id="lnJxLbBwpEq78I7ZmRtl-43" value="&lt;font style=&quot;font-size: 12px;&quot; face=&quot;Times New Roman&quot;&gt;панельные&lt;/font&gt;" style="text;html=1;align=center;verticalAlign=middle;resizable=0;points=[];autosize=1;strokeColor=none;fillColor=none;" vertex="1" parent="1">
          <mxGeometry x="550" y="180" width="80" height="30" as="geometry" />
        </mxCell>
        <mxCell id="lnJxLbBwpEq78I7ZmRtl-44" value="&lt;font style=&quot;font-size: 12px;&quot; face=&quot;Times New Roman&quot;&gt;лонгитюдные&lt;/font&gt;" style="text;html=1;align=center;verticalAlign=middle;resizable=0;points=[];autosize=1;strokeColor=none;fillColor=none;" vertex="1" parent="1">
          <mxGeometry x="620" y="180" width="90" height="30" as="geometry" />
        </mxCell>
        <mxCell id="lnJxLbBwpEq78I7ZmRtl-45" style="edgeStyle=none;shape=connector;rounded=0;orthogonalLoop=1;jettySize=auto;html=1;entryX=0.5;entryY=0.333;entryDx=0;entryDy=0;entryPerimeter=0;labelBackgroundColor=default;strokeColor=default;align=center;verticalAlign=middle;fontFamily=Helvetica;fontSize=11;fontColor=default;endArrow=openThin;endFill=0;dashed=1;" edge="1" parent="1" source="lnJxLbBwpEq78I7ZmRtl-38" target="lnJxLbBwpEq78I7ZmRtl-42">
          <mxGeometry relative="1" as="geometry" />
        </mxCell>
        <mxCell id="lnJxLbBwpEq78I7ZmRtl-46" style="edgeStyle=none;shape=connector;rounded=0;orthogonalLoop=1;jettySize=auto;html=1;entryX=0.5;entryY=0.333;entryDx=0;entryDy=0;entryPerimeter=0;labelBackgroundColor=default;strokeColor=default;align=center;verticalAlign=middle;fontFamily=Helvetica;fontSize=11;fontColor=default;endArrow=openThin;endFill=0;dashed=1;" edge="1" parent="1" source="lnJxLbBwpEq78I7ZmRtl-38" target="lnJxLbBwpEq78I7ZmRtl-43">
          <mxGeometry relative="1" as="geometry" />
        </mxCell>
        <mxCell id="lnJxLbBwpEq78I7ZmRtl-47" style="edgeStyle=none;shape=connector;rounded=0;orthogonalLoop=1;jettySize=auto;html=1;entryX=0.5;entryY=0.333;entryDx=0;entryDy=0;entryPerimeter=0;labelBackgroundColor=default;strokeColor=default;align=center;verticalAlign=middle;fontFamily=Helvetica;fontSize=11;fontColor=default;endArrow=openThin;endFill=0;dashed=1;" edge="1" parent="1" source="lnJxLbBwpEq78I7ZmRtl-38" target="lnJxLbBwpEq78I7ZmRtl-44">
          <mxGeometry relative="1" as="geometry" />
        </mxCell>
        <mxCell id="lnJxLbBwpEq78I7ZmRtl-50" value="&lt;font style=&quot;font-size: 12px;&quot; face=&quot;Times New Roman&quot;&gt;социальный мониторинг&lt;/font&gt;" style="text;html=1;align=center;verticalAlign=middle;resizable=0;points=[];autosize=1;strokeColor=none;fillColor=none;" vertex="1" parent="1">
          <mxGeometry x="710" y="180" width="150" height="30" as="geometry" />
        </mxCell>
        <mxCell id="lnJxLbBwpEq78I7ZmRtl-51" style="edgeStyle=none;shape=connector;rounded=0;orthogonalLoop=1;jettySize=auto;html=1;entryX=0.533;entryY=0.333;entryDx=0;entryDy=0;entryPerimeter=0;labelBackgroundColor=default;strokeColor=default;align=center;verticalAlign=middle;fontFamily=Helvetica;fontSize=11;fontColor=default;endArrow=openThin;endFill=0;dashed=1;" edge="1" parent="1" source="lnJxLbBwpEq78I7ZmRtl-38" target="lnJxLbBwpEq78I7ZmRtl-50">
          <mxGeometry relative="1" as="geometry" />
        </mxCell>
        <mxCell id="lnJxLbBwpEq78I7ZmRtl-52" value="&lt;font style=&quot;font-size: 10px;&quot; face=&quot;Times New Roman&quot;&gt;когортные&lt;/font&gt;" style="text;html=1;align=center;verticalAlign=middle;resizable=0;points=[];autosize=1;strokeColor=none;fillColor=none;" vertex="1" parent="1">
          <mxGeometry x="430" y="220" width="70" height="30" as="geometry" />
        </mxCell>
        <mxCell id="lnJxLbBwpEq78I7ZmRtl-53" value="&lt;font style=&quot;font-size: 10px;&quot; face=&quot;Times New Roman&quot;&gt;исторические&lt;/font&gt;" style="text;html=1;align=center;verticalAlign=middle;resizable=0;points=[];autosize=1;strokeColor=none;fillColor=none;" vertex="1" parent="1">
          <mxGeometry x="510" y="220" width="80" height="30" as="geometry" />
        </mxCell>
        <mxCell id="lnJxLbBwpEq78I7ZmRtl-54" style="edgeStyle=none;shape=connector;rounded=0;orthogonalLoop=1;jettySize=auto;html=1;entryX=0.5;entryY=0.333;entryDx=0;entryDy=0;entryPerimeter=0;labelBackgroundColor=default;strokeColor=default;align=center;verticalAlign=middle;fontFamily=Helvetica;fontSize=11;fontColor=default;endArrow=openThin;endFill=0;dashed=1;" edge="1" parent="1" source="lnJxLbBwpEq78I7ZmRtl-42" target="lnJxLbBwpEq78I7ZmRtl-52">
          <mxGeometry relative="1" as="geometry" />
        </mxCell>
        <mxCell id="lnJxLbBwpEq78I7ZmRtl-55" style="edgeStyle=none;shape=connector;rounded=0;orthogonalLoop=1;jettySize=auto;html=1;entryX=0.5;entryY=0.333;entryDx=0;entryDy=0;entryPerimeter=0;labelBackgroundColor=default;strokeColor=default;align=center;verticalAlign=middle;fontFamily=Helvetica;fontSize=11;fontColor=default;endArrow=openThin;endFill=0;dashed=1;" edge="1" parent="1" source="lnJxLbBwpEq78I7ZmRtl-42" target="lnJxLbBwpEq78I7ZmRtl-53">
          <mxGeometry relative="1" as="geometry" />
        </mxCell>
      </root>
    </mxGraphModel>
  </diagram>
</mxfile>
